<mxfile host="Electron" modified="2024-02-19T08:39:08.748Z" agent="Mozilla/5.0 (Windows NT 10.0; Win64; x64) AppleWebKit/537.36 (KHTML, like Gecko) draw.io/22.0.3 Chrome/114.0.5735.289 Electron/25.8.4 Safari/537.36" etag="Uua2O5g6xqu6DG84Q2lG" version="22.0.3" type="device">
  <diagram name="Page-1" id="CD-6IvyPRPXAj1BLvwi5">
    <mxGraphModel dx="366" dy="313" grid="1" gridSize="10" guides="1" tooltips="1" connect="1" arrows="1" fold="1" page="1" pageScale="1" pageWidth="827" pageHeight="1169" math="0" shadow="0">
      <root>
        <mxCell id="0" />
        <mxCell id="1" parent="0" />
        <mxCell id="lKnWRd_Wuot1-fTY9fIk-2" value="Cabling" style="ellipse;whiteSpace=wrap;html=1;fontColor=#6DC800;strokeColor=#6DC800;strokeWidth=3;fontSize=13;spacing=2;fontStyle=1;fontFamily=Tahoma;fillColor=none;" parent="1" vertex="1">
          <mxGeometry x="80" y="240" width="120" height="80" as="geometry" />
        </mxCell>
        <mxCell id="lKnWRd_Wuot1-fTY9fIk-3" value="Network&lt;br style=&quot;font-size: 13px;&quot;&gt;Configuration" style="ellipse;whiteSpace=wrap;html=1;fontColor=#6DC800;strokeColor=#6DC800;strokeWidth=3;fontSize=13;spacing=2;fontStyle=1;fontFamily=Tahoma;fillColor=none;" parent="1" vertex="1">
          <mxGeometry x="240" y="240" width="120" height="80" as="geometry" />
        </mxCell>
        <mxCell id="lKnWRd_Wuot1-fTY9fIk-5" value="Commissioning" style="ellipse;whiteSpace=wrap;html=1;fontColor=#6DC800;strokeColor=#6DC800;strokeWidth=3;fontSize=13;spacing=2;fontStyle=1;fontFamily=Tahoma;fillColor=none;" parent="1" vertex="1">
          <mxGeometry x="400" y="240" width="120" height="80" as="geometry" />
        </mxCell>
        <mxCell id="lKnWRd_Wuot1-fTY9fIk-6" value="Validation" style="ellipse;whiteSpace=wrap;html=1;fontColor=#6DC800;strokeColor=#6DC800;strokeWidth=3;fontSize=13;spacing=2;fontStyle=1;fontFamily=Tahoma;fillColor=none;" parent="1" vertex="1">
          <mxGeometry x="560" y="240" width="120" height="80" as="geometry" />
        </mxCell>
        <mxCell id="lKnWRd_Wuot1-fTY9fIk-7" value="" style="endArrow=classic;html=1;rounded=0;strokeColor=#6DC800;strokeWidth=3;shape=flexArrow;width=9.333333333333334;endSize=4.223333333333334;endWidth=9.555555555555555;fillColor=none;" parent="1" edge="1">
          <mxGeometry width="50" height="50" relative="1" as="geometry">
            <mxPoint x="520" y="279.71" as="sourcePoint" />
            <mxPoint x="560" y="279.71" as="targetPoint" />
          </mxGeometry>
        </mxCell>
        <mxCell id="lKnWRd_Wuot1-fTY9fIk-11" value="" style="endArrow=classic;html=1;rounded=0;strokeColor=#6DC800;strokeWidth=3;shape=flexArrow;width=9.333333333333334;endSize=4.223333333333334;endWidth=9.555555555555555;fillColor=none;" parent="1" edge="1">
          <mxGeometry width="50" height="50" relative="1" as="geometry">
            <mxPoint x="360" y="279.71" as="sourcePoint" />
            <mxPoint x="400" y="279.71" as="targetPoint" />
          </mxGeometry>
        </mxCell>
        <mxCell id="lKnWRd_Wuot1-fTY9fIk-12" value="" style="endArrow=classic;html=1;rounded=0;strokeColor=#6DC800;strokeWidth=3;shape=flexArrow;width=9.333333333333334;endSize=4.223333333333334;endWidth=9.555555555555555;fillColor=none;" parent="1" edge="1">
          <mxGeometry width="50" height="50" relative="1" as="geometry">
            <mxPoint x="200" y="279.71" as="sourcePoint" />
            <mxPoint x="240" y="279.71" as="targetPoint" />
          </mxGeometry>
        </mxCell>
      </root>
    </mxGraphModel>
  </diagram>
</mxfile>
